<svg width="288" height="105" viewBox="0 0 288 105" fill="none" xmlns="http://www.w3.org/2000/svg">
<g clip-path="url(#clip0_359_300)">
<g filter="url(#filter0_d_359_300)">
<path d="M258 6H30C18.9543 6 10 14.9543 10 26V71C10 82.0457 18.9543 91 30 91H258C269.046 91 278 82.0457 278 71V26C278 14.9543 269.046 6 258 6Z" fill="#6E2ADD"/>
</g>
<path d="M94.2345 41.7206C94.0746 41.8207 90.2682 43.9332 90.2682 48.6171C90.4476 53.9588 95.0717 55.8321 95.151 55.8321C95.0717 55.9322 94.4529 58.384 92.6199 60.9541C91.1652 63.168 89.5506 65.4001 87.0988 65.4001C84.7666 65.4001 83.9294 63.9246 81.2384 63.9246C78.3485 63.9246 77.5308 65.4001 75.3182 65.4001C72.8664 65.4001 71.1322 63.0484 69.5982 60.8553C67.6053 57.9849 65.9114 53.4804 65.8516 49.1553C65.8113 46.8634 66.2507 44.6105 67.3661 42.6969C68.9404 40.0254 71.751 38.2119 74.8203 38.1521C77.172 38.0728 79.265 39.7667 80.7002 39.7667C82.0756 39.7667 84.647 38.1521 87.5564 38.1521C88.8122 38.1534 92.161 38.5317 94.2345 41.7206ZM80.5013 37.6945C80.0827 35.6015 81.2384 33.5085 82.3148 32.1734C83.6902 30.5588 85.8625 29.4629 87.7358 29.4629C87.8554 31.5559 87.0975 33.6086 85.7429 35.1036C84.5274 36.7182 82.4344 37.9337 80.5013 37.6945Z" fill="white"/>
<path d="M119.727 57H116.469L122.445 40.0312H126.195L132.195 57H128.938L127.531 52.8047H121.133L119.727 57ZM121.953 50.3438H126.711L124.391 43.5H124.25L121.953 50.3438ZM134.07 61.7812V44.2734H137V46.3594H137.188C137.656 45.4453 138.594 44.1094 140.844 44.1094C143.773 44.1094 146.094 46.4062 146.094 50.6484C146.094 54.8438 143.844 57.2344 140.844 57.2344C138.641 57.2344 137.656 55.9219 137.188 54.9844H137.07V61.7812H134.07ZM137 50.625C137 53.1094 138.078 54.7734 140.023 54.7734C141.992 54.7734 143.047 53.0391 143.047 50.625C143.047 48.2578 142.016 46.5469 140.023 46.5469C138.078 46.5469 137 48.1641 137 50.625ZM148.438 61.7812V44.2734H151.367V46.3594H151.555C152.023 45.4453 152.961 44.1094 155.211 44.1094C158.141 44.1094 160.461 46.4062 160.461 50.6484C160.461 54.8438 158.211 57.2344 155.211 57.2344C153.008 57.2344 152.023 55.9219 151.555 54.9844H151.438V61.7812H148.438ZM151.367 50.625C151.367 53.1094 152.445 54.7734 154.391 54.7734C156.359 54.7734 157.414 53.0391 157.414 50.625C157.414 48.2578 156.383 46.5469 154.391 46.5469C152.445 46.5469 151.367 48.1641 151.367 50.625ZM177.875 44.6953C177.734 43.2422 176.492 42.3984 174.664 42.3984C172.742 42.3984 171.57 43.3359 171.57 44.6016C171.57 46.0312 173.07 46.6172 174.477 46.9453L176.07 47.3672C178.602 47.9531 181.039 49.2891 181.039 52.2422C181.039 55.2188 178.695 57.2578 174.617 57.2578C170.656 57.2578 168.172 55.3594 168.031 52.0078H171.031C171.172 53.7891 172.672 54.6562 174.594 54.6562C176.609 54.6562 177.992 53.6719 177.992 52.2188C177.992 50.8828 176.75 50.3203 174.922 49.8516L173 49.3594C170.211 48.6328 168.477 47.2266 168.477 44.7891C168.477 41.7891 171.148 39.7969 174.711 39.7969C178.32 39.7969 180.758 41.8359 180.805 44.6953H177.875ZM189.781 44.2734V46.5703H187.273V53.1797C187.273 54.3984 187.883 54.6562 188.633 54.6562C188.984 54.6562 189.57 54.6328 189.945 54.6094V57.0469C189.594 57.1172 189.008 57.1641 188.258 57.1641C186.008 57.1641 184.273 56.0625 184.297 53.6719V46.5703H182.469V44.2734H184.297V41.2266H187.273V44.2734H189.781ZM197.492 57.2578C193.789 57.2578 191.398 54.6328 191.398 50.6953C191.398 46.7344 193.789 44.1094 197.492 44.1094C201.219 44.1094 203.586 46.7344 203.586 50.6953C203.586 54.6328 201.219 57.2578 197.492 57.2578ZM197.516 54.8672C199.555 54.8672 200.562 53.0156 200.562 50.6719C200.562 48.3516 199.555 46.4766 197.516 46.4766C195.43 46.4766 194.422 48.3516 194.422 50.6719C194.422 53.0156 195.43 54.8672 197.516 54.8672ZM205.906 57V44.2734H208.812V46.3828H208.953C209.398 44.9297 210.641 44.0859 212.094 44.0859C212.422 44.0859 212.891 44.1094 213.172 44.1562V46.9219C212.914 46.8281 212.281 46.7344 211.789 46.7344C210.125 46.7344 208.906 47.8828 208.906 49.5V57H205.906ZM220.18 57.2578C216.336 57.2578 213.992 54.7031 213.992 50.7188C213.992 46.7812 216.383 44.1094 220.016 44.1094C223.133 44.1094 225.828 46.0547 225.828 50.5312V51.4688H216.945C216.98 53.6367 218.258 54.9141 220.203 54.9141C221.516 54.9141 222.406 54.3516 222.781 53.6016H225.711C225.172 55.8047 223.133 57.2578 220.18 57.2578ZM216.969 49.4297H222.969C222.945 47.6953 221.797 46.4297 220.062 46.4297C218.258 46.4297 217.062 47.8008 216.969 49.4297Z" fill="white"/>
</g>
<defs>
<filter id="filter0_d_359_300" x="0" y="0" width="288" height="105" filterUnits="userSpaceOnUse" color-interpolation-filters="sRGB">
<feFlood flood-opacity="0" result="BackgroundImageFix"/>
<feColorMatrix in="SourceAlpha" type="matrix" values="0 0 0 0 0 0 0 0 0 0 0 0 0 0 0 0 0 0 127 0" result="hardAlpha"/>
<feOffset dy="4"/>
<feGaussianBlur stdDeviation="5"/>
<feComposite in2="hardAlpha" operator="out"/>
<feColorMatrix type="matrix" values="0 0 0 0 0 0 0 0 0 0 0 0 0 0 0 0 0 0 0.25 0"/>
<feBlend mode="normal" in2="BackgroundImageFix" result="effect1_dropShadow_359_300"/>
<feBlend mode="normal" in="SourceGraphic" in2="effect1_dropShadow_359_300" result="shape"/>
</filter>
<clipPath id="clip0_359_300">
<rect width="288" height="105" fill="white"/>
</clipPath>
</defs>
</svg>
