<svg width="132" height="92" viewBox="0 0 132 92" fill="none" xmlns="http://www.w3.org/2000/svg">
<g clip-path="url(#clip0_408_390)">
<path d="M114 0H18C8.05887 0 0 8.05887 0 18V74C0 83.9411 8.05887 92 18 92H114C123.941 92 132 83.9411 132 74V18C132 8.05887 123.941 0 114 0Z" fill="#6E2ADD"/>
<path d="M65.1211 45.3984V48.0645H40.9512V45.3984H65.1211ZM62.3379 40.7109V43.3184H43.9102V33.9727H62.1914V36.6094H47.1621V40.7109H62.3379ZM52.9922 49.9102C58.7051 49.8809 62.1328 51.6387 62.1621 54.7148C62.1328 57.8203 58.7051 59.5781 52.9922 59.5781C47.2207 59.5781 43.7637 57.8203 43.7637 54.7148C43.7637 51.6387 47.2207 49.8809 52.9922 49.9102ZM52.9922 52.4004C49.125 52.4004 47.0449 53.2207 47.0742 54.7148C47.0449 56.2676 49.125 57.0586 52.9922 57.0586C56.7715 57.0586 58.8809 56.2676 58.9102 54.7148C58.8809 53.2207 56.7715 52.4004 52.9922 52.4004ZM91.0488 47.4492V50.0859H66.8496V47.4492H77.3379V45.252H69.9258V38.2207H84.8086V36.2578H69.8379V33.709H88.0605V40.5938H73.1484V42.7031H88.5879V45.252H80.5605V47.4492H91.0488ZM88.207 51.7559V59.4316H84.9258V54.334H69.5449V51.7559H88.207Z" fill="white"/>
</g>
<defs>
<clipPath id="clip0_408_390">
<rect width="132" height="92" fill="white"/>
</clipPath>
</defs>
</svg>
