<svg width="288" height="105" viewBox="0 0 288 105" fill="none" xmlns="http://www.w3.org/2000/svg">
<g clip-path="url(#clip0_359_295)">
<g filter="url(#filter0_d_359_295)">
<path d="M258 6H30C18.9543 6 10 14.9543 10 26V71C10 82.0457 18.9543 91 30 91H258C269.046 91 278 82.0457 278 71V26C278 14.9543 269.046 6 258 6Z" fill="#6E2ADD"/>
</g>
<path d="M56.5575 30.5601L73.4494 47.3301L78.0806 42.6988L57.6056 30.8769C57.2644 30.6789 56.8988 30.5692 56.5575 30.5601ZM55.1438 31.3401C54.9914 31.6112 54.9 31.9312 54.9 32.2907V64.8801C54.9 65.1421 54.9549 65.3767 55.0463 65.5869L72.3281 48.4269L55.1438 31.3401ZM79.4944 43.5032L74.5463 48.4269L79.4944 53.3263L85.5394 49.8651C86.3986 49.3684 86.5205 48.7377 86.5144 48.4026C86.5053 47.848 86.1549 47.3301 85.5638 47.0132C85.0489 46.7359 81.225 44.5087 79.4944 43.5032ZM73.4494 49.5238L56.4113 66.4157C56.6946 66.4005 57.0024 66.3395 57.2888 66.1719C57.956 65.785 71.4506 57.9819 71.4506 57.9819L78.105 54.1551L73.4494 49.5238Z" fill="white"/>
<path d="M118.938 45.4453C118.398 43.6406 116.992 42.5391 114.93 42.5391C112.188 42.5391 110.219 44.6719 110.219 48.4922C110.219 52.3594 112.164 54.4922 115 54.4922C117.555 54.4922 119.195 52.9453 119.242 50.5312H115.305V48.1172H122.195V50.1562C122.195 54.5156 119.195 57.2344 115 57.2344C110.312 57.2344 107.148 53.9062 107.148 48.5156C107.148 43.0781 110.453 39.7969 114.906 39.7969C118.656 39.7969 121.539 42.1172 122.055 45.4453H118.938ZM130.375 57.2578C126.672 57.2578 124.281 54.6328 124.281 50.6953C124.281 46.7344 126.672 44.1094 130.375 44.1094C134.102 44.1094 136.469 46.7344 136.469 50.6953C136.469 54.6328 134.102 57.2578 130.375 57.2578ZM130.398 54.8672C132.438 54.8672 133.445 53.0156 133.445 50.6719C133.445 48.3516 132.438 46.4766 130.398 46.4766C128.312 46.4766 127.305 48.3516 127.305 50.6719C127.305 53.0156 128.312 54.8672 130.398 54.8672ZM144.344 57.2578C140.641 57.2578 138.25 54.6328 138.25 50.6953C138.25 46.7344 140.641 44.1094 144.344 44.1094C148.07 44.1094 150.438 46.7344 150.438 50.6953C150.438 54.6328 148.07 57.2578 144.344 57.2578ZM144.367 54.8672C146.406 54.8672 147.414 53.0156 147.414 50.6719C147.414 48.3516 146.406 46.4766 144.367 46.4766C142.281 46.4766 141.273 48.3516 141.273 50.6719C141.273 53.0156 142.281 54.8672 144.367 54.8672ZM158.312 62.0391C154.938 62.0391 152.805 60.5391 152.594 58.1484H155.57C155.781 59.25 156.836 59.7891 158.359 59.7891C160.141 59.7891 161.312 59.0156 161.312 57.1406V54.7031H161.172C160.703 55.6406 159.695 56.8125 157.492 56.8125C154.562 56.8125 152.242 54.6797 152.242 50.5312C152.242 46.3359 154.562 44.1094 157.516 44.1094C159.766 44.1094 160.703 45.4453 161.172 46.3594H161.312V44.2734H164.266V57.2109C164.266 60.4688 161.758 62.0391 158.312 62.0391ZM158.312 54.4688C160.234 54.4688 161.336 53.0156 161.336 50.5781C161.336 48.1641 160.258 46.5469 158.312 46.5469C156.32 46.5469 155.289 48.2578 155.289 50.5781C155.289 52.9219 156.344 54.4688 158.312 54.4688ZM170.125 40.0312V57H167.125V40.0312H170.125ZM178.633 57.2578C174.789 57.2578 172.445 54.7031 172.445 50.7188C172.445 46.7812 174.836 44.1094 178.469 44.1094C181.586 44.1094 184.281 46.0547 184.281 50.5312V51.4688H175.398C175.434 53.6367 176.711 54.9141 178.656 54.9141C179.969 54.9141 180.859 54.3516 181.234 53.6016H184.164C183.625 55.8047 181.586 57.2578 178.633 57.2578ZM175.422 49.4297H181.422C181.398 47.6953 180.25 46.4297 178.516 46.4297C176.711 46.4297 175.516 47.8008 175.422 49.4297ZM192.438 57V40.0312H198.812C202.703 40.0312 204.789 42.3984 204.789 45.6562C204.789 48.9141 202.68 51.2578 198.766 51.2578H195.484V57H192.438ZM195.484 48.75H198.344C200.641 48.75 201.672 47.4609 201.672 45.6562C201.672 43.8281 200.641 42.5859 198.344 42.5859H195.484V48.75ZM210.109 40.0312V57H207.109V40.0312H210.109ZM212.383 53.4141C212.383 50.5547 214.75 49.7109 217.117 49.5703C217.996 49.5117 219.824 49.4062 220.375 49.3828V48.375C220.375 47.1094 219.555 46.3828 218.078 46.3828C216.742 46.3828 215.922 46.9922 215.688 47.9062H212.805C213.016 45.75 214.961 44.1094 218.148 44.1094C220.562 44.1094 223.352 45.0938 223.352 48.4922V57H220.492V55.2422H220.398C219.836 56.3203 218.641 57.2578 216.648 57.2578C214.211 57.2578 212.383 55.9219 212.383 53.4141ZM215.266 53.3906C215.266 54.4922 216.156 55.0547 217.422 55.0547C219.227 55.0547 220.398 53.8594 220.398 52.4297V51.375L217.586 51.5625C216.156 51.6797 215.266 52.2656 215.266 53.3906ZM227.5 61.7812C226.914 61.7812 226.328 61.7578 225.953 61.7109V59.3203C226.328 59.3438 226.82 59.3672 227.219 59.3672C227.945 59.3672 228.555 59.2969 229.07 57.9375L229.328 57.2578L224.688 44.2734H227.852L230.805 53.8828H230.945L233.898 44.2734H237.062L231.953 58.5469C231.227 60.5859 229.891 61.7812 227.5 61.7812Z" fill="white"/>
</g>
<defs>
<filter id="filter0_d_359_295" x="0" y="0" width="288" height="105" filterUnits="userSpaceOnUse" color-interpolation-filters="sRGB">
<feFlood flood-opacity="0" result="BackgroundImageFix"/>
<feColorMatrix in="SourceAlpha" type="matrix" values="0 0 0 0 0 0 0 0 0 0 0 0 0 0 0 0 0 0 127 0" result="hardAlpha"/>
<feOffset dy="4"/>
<feGaussianBlur stdDeviation="5"/>
<feComposite in2="hardAlpha" operator="out"/>
<feColorMatrix type="matrix" values="0 0 0 0 0 0 0 0 0 0 0 0 0 0 0 0 0 0 0.25 0"/>
<feBlend mode="normal" in2="BackgroundImageFix" result="effect1_dropShadow_359_295"/>
<feBlend mode="normal" in="SourceGraphic" in2="effect1_dropShadow_359_295" result="shape"/>
</filter>
<clipPath id="clip0_359_295">
<rect width="288" height="105" fill="white"/>
</clipPath>
</defs>
</svg>
