<svg width="235" height="175" viewBox="0 0 235 175" fill="none" xmlns="http://www.w3.org/2000/svg">
<path d="M53.7471 72.2031C53.7471 75.6914 57.6436 79.5508 65.1768 80.4414L63.5068 84.1152C57.6807 83.3545 53.4502 80.9238 51.2979 77.6211C49.1084 80.9238 44.8779 83.3545 39.126 84.1152L37.4189 80.4414C44.9521 79.5137 48.8486 75.7656 48.8857 72.2031V71.0898H53.7471V72.2031ZM66.6982 85.7852V89.5703H53.5986V92.2051C59.499 92.6875 62.9873 94.8398 63.0244 98.3281C62.9873 102.262 58.5713 104.414 51.2607 104.414C43.8389 104.414 39.4229 102.262 39.4229 98.3281C39.4229 94.8398 42.8926 92.6875 48.8486 92.2051V89.5703H35.8975V85.7852H66.6982ZM51.2607 95.7676C46.585 95.7676 44.21 96.6211 44.2471 98.3281C44.21 100.035 46.585 100.889 51.2607 100.889C55.8252 100.889 58.2373 100.035 58.2744 98.3281C58.2373 96.6211 55.8252 95.7676 51.2607 95.7676ZM96.9795 70.6445V87.752H92.2666V70.6445H96.9795ZM97.0166 89.1992V98.3652H79.0557V100.443H97.9443V104.191H74.417V94.8398H92.3037V92.873H74.3428V89.1992H97.0166ZM81.6904 73.9844C81.6533 78.0664 84.1025 82 89.6318 83.5957L87.3311 87.2324C83.4531 86.1006 80.7812 83.7627 79.2783 80.7754C77.7197 84.041 74.9551 86.6387 70.9287 87.8262L68.5908 84.1152C74.2314 82.4453 76.7549 78.1777 76.7549 73.9844V71.3867H81.6904V73.9844ZM130.786 70.6445V104.414H126.296V87.4551H123.03V102.781H118.688V71.2012H123.03V83.6699H126.296V70.6445H130.786ZM115.126 74.541V78.3633H107.296V92.7617C110.562 92.7432 113.456 92.5762 116.722 91.9824L117.056 95.8418C112.937 96.6211 109.337 96.7324 104.884 96.7695H102.546V74.541H115.126ZM154.462 73.6504V77.3984H134.423V73.6504H142.104V70.459H146.817V73.6504H154.462ZM144.442 78.4746C149.341 78.4746 152.755 80.998 152.755 84.709C152.755 88.4199 149.341 90.9434 144.442 90.9434C139.544 90.9434 136.056 88.4199 136.056 84.709C136.056 80.998 139.544 78.4746 144.442 78.4746ZM144.442 82.0371C142.179 82.0371 140.657 82.9648 140.694 84.709C140.657 86.416 142.179 87.3066 144.442 87.3066C146.706 87.3066 148.265 86.416 148.265 84.709C148.265 82.9648 146.706 82.0371 144.442 82.0371ZM161.216 70.6445V79.4023H165.78V83.2617H161.216V91.834H156.466V70.6445H161.216ZM161.216 93.2441V104.414H156.466V97.0293H138.468V93.2441H161.216ZM195.282 73.5762V76.8789C195.245 80.998 195.245 85.6367 194.021 92.4277L189.382 92.0195C190.495 85.8408 190.532 81.2393 190.532 77.3242H170.308V73.5762H195.282ZM198.065 96.4355V100.295H167.265V96.4355H173.833V85.8223H178.546V96.4355H182.257V85.8223H186.933V96.4355H198.065Z" fill="white"/>
<path d="M82.2593 43.3213V46.0371H72.978V47.8037C77.1572 48.1201 79.6226 49.623 79.6489 52.1016C79.6226 54.8701 76.4849 56.4258 71.2905 56.4258C66.0171 56.4258 62.8794 54.8701 62.8794 52.1016C62.8794 49.6099 65.3711 48.1069 69.6294 47.8037V46.0371H60.3745V43.3213H82.2593ZM71.2905 50.2822C67.9683 50.3086 66.2808 50.8887 66.3071 52.1016C66.2808 53.2617 67.9683 53.8945 71.2905 53.8945C74.5337 53.8945 76.2476 53.2617 76.2739 52.1016C76.2476 50.8887 74.5337 50.3086 71.2905 50.2822ZM80.2817 33.46V36.0967H73.769C74.3359 37.7842 76.7749 39.4058 81.3364 39.7881L80.1499 42.4248C75.6279 41.9897 72.5693 40.2759 71.2905 37.9424C70.0249 40.2759 67.019 41.9897 62.4575 42.4248L61.3501 39.7881C65.793 39.4058 68.2451 37.771 68.8647 36.0967H62.3784V33.46H80.2817ZM90.4595 33.75C94.1772 33.7236 96.9985 36.1494 96.9985 39.5508C96.9985 42.9521 94.1772 45.3516 90.4595 45.3516C86.7153 45.3516 83.8677 42.9521 83.8677 39.5508C83.8677 36.1494 86.7153 33.7236 90.4595 33.75ZM90.4595 36.5713C88.561 36.5449 87.1636 37.7051 87.1899 39.5508C87.1636 41.4229 88.561 42.5303 90.4595 42.5303C92.3052 42.5303 93.7026 41.4229 93.729 39.5508C93.7026 37.7051 92.3052 36.5449 90.4595 36.5713ZM102.747 32.4316V37.916H105.99V40.6318H102.747V46.459H99.3716V32.4316H102.747ZM94.8892 46.9336C99.8198 46.9336 102.984 48.7266 102.984 51.7061C102.984 54.6592 99.8198 56.4258 94.8892 56.4258C89.853 56.4258 86.6626 54.6592 86.6626 51.7061C86.6626 48.7266 89.853 46.9336 94.8892 46.9336ZM94.8892 49.5967C91.7251 49.5967 90.0112 50.3086 90.0376 51.7061C90.0112 53.1035 91.7251 53.7627 94.8892 53.7627C98.0005 53.7627 99.6616 53.1035 99.6616 51.7061C99.6616 50.3086 98.0005 49.5967 94.8892 49.5967ZM127.795 32.4316V56.4258H124.605V44.376H122.285V55.2656H119.2V32.8271H122.285V41.6865H124.605V32.4316H127.795ZM116.668 35.2002V37.916H111.105V48.1465C113.425 48.1333 115.482 48.0146 117.802 47.5928L118.04 50.335C115.113 50.8887 112.555 50.9678 109.391 50.9941H107.73V35.2002H116.668ZM144.618 34.5674V37.2305H130.379V34.5674H135.837V32.2998H139.186V34.5674H144.618ZM137.499 37.9951C140.979 37.9951 143.405 39.7881 143.405 42.4248C143.405 45.0615 140.979 46.8545 137.499 46.8545C134.018 46.8545 131.54 45.0615 131.54 42.4248C131.54 39.7881 134.018 37.9951 137.499 37.9951ZM137.499 40.5264C135.89 40.5264 134.809 41.1855 134.835 42.4248C134.809 43.6377 135.89 44.2705 137.499 44.2705C139.107 44.2705 140.214 43.6377 140.214 42.4248C140.214 41.1855 139.107 40.5264 137.499 40.5264ZM149.417 32.4316V38.6543H152.66V41.3965H149.417V47.4873H146.042V32.4316H149.417ZM149.417 48.4893V56.4258H146.042V51.1787H133.253V48.4893H149.417ZM173.622 34.5146V36.8613C173.595 39.7881 173.595 43.084 172.725 47.9092L169.429 47.6191C170.22 43.229 170.247 39.9595 170.247 37.1777H155.876V34.5146H173.622ZM175.599 50.7568V53.499H153.714V50.7568H158.381V43.2158H161.73V50.7568H164.367V43.2158H167.689V50.7568H175.599Z" fill="#CDCDCD"/>
<path d="M81.2593 131.455V134.145H59.3745V131.455H68.6294V129.135H71.9517V131.455H81.2593ZM71.9517 119.511V121.567H79.1499V124.23H72.2417C72.6899 125.892 75.1553 127.434 80.2837 127.737L79.2817 130.295C74.8521 129.979 71.7935 128.687 70.2905 126.762C68.7744 128.687 65.7158 129.979 61.3257 130.295L60.2974 127.737C65.4258 127.434 67.8647 125.892 68.3394 124.23H61.4839V121.567H68.6294V119.511H71.9517ZM70.2905 135.278C75.5376 135.278 78.6226 136.702 78.6489 139.339C78.6226 142.002 75.5376 143.426 70.2905 143.426C65.0171 143.426 61.8794 142.002 61.8794 139.339C61.8794 136.702 65.0171 135.278 70.2905 135.278ZM70.2905 137.757C66.9419 137.757 65.2808 138.258 65.3071 139.339C65.2808 140.446 66.9419 140.947 70.2905 140.947C73.5601 140.947 75.2476 140.446 75.2739 139.339C75.2476 138.258 73.5601 137.757 70.2905 137.757ZM102.801 119.458V136.966H99.4263V119.458H102.801ZM103.434 140.314V143.004H86.7173V135.278H90.1187V140.314H103.434ZM91.9116 123.097C91.8853 126.261 93.5728 129.372 97.5278 130.638L95.814 133.274C93.1113 132.378 91.2393 130.585 90.1714 128.291C89.1035 130.756 87.1787 132.734 84.3706 133.696L82.6304 131.033C86.6646 129.688 88.4048 126.34 88.4048 123.097V120.776H91.9116V123.097ZM126.795 119.432V143.426H123.605V131.376H121.285V142.266H118.2V119.827H121.285V128.687H123.605V119.432H126.795ZM115.668 122.2V124.916H110.105V135.146C112.425 135.133 114.482 135.015 116.802 134.593L117.04 137.335C114.113 137.889 111.555 137.968 108.391 137.994H106.73V122.2H115.668ZM143.618 121.567V124.23H129.379V121.567H134.837V119.3H138.186V121.567H143.618ZM136.499 124.995C139.979 124.995 142.405 126.788 142.405 129.425C142.405 132.062 139.979 133.854 136.499 133.854C133.018 133.854 130.54 132.062 130.54 129.425C130.54 126.788 133.018 124.995 136.499 124.995ZM136.499 127.526C134.89 127.526 133.809 128.186 133.835 129.425C133.809 130.638 134.89 131.271 136.499 131.271C138.107 131.271 139.214 130.638 139.214 129.425C139.214 128.186 138.107 127.526 136.499 127.526ZM148.417 119.432V125.654H151.66V128.396H148.417V134.487H145.042V119.432H148.417ZM148.417 135.489V143.426H145.042V138.179H132.253V135.489H148.417ZM172.622 121.515V123.861C172.595 126.788 172.595 130.084 171.725 134.909L168.429 134.619C169.22 130.229 169.247 126.959 169.247 124.178H154.876V121.515H172.622ZM174.599 137.757V140.499H152.714V137.757H157.381V130.216H160.73V137.757H163.367V130.216H166.689V137.757H174.599Z" fill="#CDCDCD"/>
<path d="M84.6299 6.24219C84.6299 9.24805 85.8428 12.166 88.5146 13.3262L87.1436 15.1191C85.3682 14.249 84.1816 12.6582 83.5225 10.6895C82.8193 12.7812 81.5889 14.4951 79.7607 15.4004L78.3545 13.5723C81.0967 12.3418 82.3447 9.24805 82.3623 6.24219V3.85156H84.6299V6.24219ZM92.083 2.62109V18.6523H89.8682V9.45898H86.7217V7.64844H89.8682V2.62109H92.083ZM101.435 2.76172C105.108 2.76172 107.235 3.72852 107.253 5.50391C107.235 7.26172 105.108 8.22852 101.435 8.22852C97.7432 8.22852 95.5986 7.26172 95.5986 5.50391C95.5986 3.72852 97.7432 2.76172 101.435 2.76172ZM101.435 4.41406C99.0791 4.41406 97.9365 4.76562 97.9541 5.50391C97.9365 6.27734 99.0791 6.59375 101.435 6.59375C103.808 6.59375 104.933 6.27734 104.933 5.50391C104.933 4.76562 103.808 4.41406 101.435 4.41406ZM108.729 8.94922V10.707H102.542V11.7793H106.954V15.8574H98.042V16.8242H107.376V18.5117H95.8447V14.293H104.739V13.4141H95.8271V11.7793H100.292V10.707H94.1396V8.94922H108.729ZM123.53 2.62109V18.6172H121.403V10.584H119.856V17.8438H117.8V2.88477H119.856V8.79102H121.403V2.62109H123.53ZM116.112 4.4668V6.27734H112.403V13.0977C113.95 13.0889 115.321 13.0098 116.868 12.7285L117.026 14.5566C115.075 14.9258 113.37 14.9785 111.261 14.9961H110.153V4.4668H116.112ZM134.745 4.04492V5.82031H125.253V4.04492H128.892V2.5332H131.124V4.04492H134.745ZM129.999 6.33008C132.319 6.33008 133.937 7.52539 133.937 9.2832C133.937 11.041 132.319 12.2363 129.999 12.2363C127.679 12.2363 126.026 11.041 126.026 9.2832C126.026 7.52539 127.679 6.33008 129.999 6.33008ZM129.999 8.01758C128.927 8.01758 128.206 8.45703 128.224 9.2832C128.206 10.0918 128.927 10.5137 129.999 10.5137C131.071 10.5137 131.81 10.0918 131.81 9.2832C131.81 8.45703 131.071 8.01758 129.999 8.01758ZM137.944 2.62109V6.76953H140.106V8.59766H137.944V12.6582H135.694V2.62109H137.944ZM137.944 13.3262V18.6172H135.694V15.1191H127.169V13.3262H137.944ZM154.081 4.00977V5.57422C154.063 7.52539 154.063 9.72266 153.483 12.9395L151.286 12.7461C151.813 9.81934 151.831 7.63965 151.831 5.78516H142.251V4.00977H154.081ZM155.399 14.8379V16.666H140.81V14.8379H143.921V9.81055H146.153V14.8379H147.911V9.81055H150.126V14.8379H155.399Z" fill="#CDCDCD"/>
<path d="M92.0654 156.639V168.328H89.833V163.107H86.9678V161.262H89.833V156.639H92.0654ZM87.1084 157.816C87.1084 162.105 84.3838 165.27 79.708 166.729L78.7939 164.953C82.1074 163.916 84.2432 162.009 84.665 159.645H79.6201V157.816H87.1084ZM92.4697 170.543V172.336H81.5186V167.15H83.8037V170.543H92.4697ZM107.042 157.324V158.572C107.042 159.75 107.042 161.104 106.726 162.826H108.782V164.619H102.56V166.922H107.06V172.617H104.81V168.68H95.6162V166.922H100.31V164.619H94.1396V162.826H104.458C104.757 161.332 104.801 160.154 104.81 159.1H95.9326V157.324H107.042ZM123.53 156.621V172.617H121.403V164.584H119.856V171.844H117.8V156.885H119.856V162.791H121.403V156.621H123.53ZM116.112 158.467V160.277H112.403V167.098C113.95 167.089 115.321 167.01 116.868 166.729L117.026 168.557C115.075 168.926 113.37 168.979 111.261 168.996H110.153V158.467H116.112ZM134.745 158.045V159.82H125.253V158.045H128.892V156.533H131.124V158.045H134.745ZM129.999 160.33C132.319 160.33 133.937 161.525 133.937 163.283C133.937 165.041 132.319 166.236 129.999 166.236C127.679 166.236 126.026 165.041 126.026 163.283C126.026 161.525 127.679 160.33 129.999 160.33ZM129.999 162.018C128.927 162.018 128.206 162.457 128.224 163.283C128.206 164.092 128.927 164.514 129.999 164.514C131.071 164.514 131.81 164.092 131.81 163.283C131.81 162.457 131.071 162.018 129.999 162.018ZM137.944 156.621V160.77H140.106V162.598H137.944V166.658H135.694V156.621H137.944ZM137.944 167.326V172.617H135.694V169.119H127.169V167.326H137.944ZM154.081 158.01V159.574C154.063 161.525 154.063 163.723 153.483 166.939L151.286 166.746C151.813 163.819 151.831 161.64 151.831 159.785H142.251V158.01H154.081ZM155.399 168.838V170.666H140.81V168.838H143.921V163.811H146.153V168.838H147.911V163.811H150.126V168.838H155.399Z" fill="#CDCDCD"/>
<g filter="url(#filter0_i_368_307)">
<path d="M7 8.04639L7.49775 169" stroke="white" stroke-width="4.66485" stroke-linecap="round"/>
<path d="M7 8.04639L7.49775 169" stroke="url(#paint0_linear_368_307)" stroke-width="4.66485" stroke-linecap="round"/>
</g>
<g filter="url(#filter1_i_368_307)">
<path d="M227.502 4L227.964 164.954" stroke="white" stroke-width="4.66485" stroke-linecap="round"/>
<path d="M227.502 4L227.964 164.954" stroke="url(#paint1_linear_368_307)" stroke-width="4.66485" stroke-linecap="round"/>
</g>
<defs>
<filter id="filter0_i_368_307" x="4.66754" y="5.71387" width="5.16266" height="172.616" filterUnits="userSpaceOnUse" color-interpolation-filters="sRGB">
<feFlood flood-opacity="0" result="BackgroundImageFix"/>
<feBlend mode="normal" in="SourceGraphic" in2="BackgroundImageFix" result="shape"/>
<feColorMatrix in="SourceAlpha" type="matrix" values="0 0 0 0 0 0 0 0 0 0 0 0 0 0 0 0 0 0 127 0" result="hardAlpha"/>
<feOffset dy="6.99728"/>
<feGaussianBlur stdDeviation="3.49864"/>
<feComposite in2="hardAlpha" operator="arithmetic" k2="-1" k3="1"/>
<feColorMatrix type="matrix" values="0 0 0 0 0 0 0 0 0 0 0 0 0 0 0 0 0 0 0.25 0"/>
<feBlend mode="normal" in2="shape" result="effect1_innerShadow_368_307"/>
</filter>
<filter id="filter1_i_368_307" x="225.17" y="1.66748" width="5.12622" height="172.616" filterUnits="userSpaceOnUse" color-interpolation-filters="sRGB">
<feFlood flood-opacity="0" result="BackgroundImageFix"/>
<feBlend mode="normal" in="SourceGraphic" in2="BackgroundImageFix" result="shape"/>
<feColorMatrix in="SourceAlpha" type="matrix" values="0 0 0 0 0 0 0 0 0 0 0 0 0 0 0 0 0 0 127 0" result="hardAlpha"/>
<feOffset dy="6.99728"/>
<feGaussianBlur stdDeviation="3.49864"/>
<feComposite in2="hardAlpha" operator="arithmetic" k2="-1" k3="1"/>
<feColorMatrix type="matrix" values="0 0 0 0 0 0 0 0 0 0 0 0 0 0 0 0 0 0 0.25 0"/>
<feBlend mode="normal" in2="shape" result="effect1_innerShadow_368_307"/>
</filter>
<linearGradient id="paint0_linear_368_307" x1="6.5" y1="8.04765" x2="6.9061" y2="169.002" gradientUnits="userSpaceOnUse">
<stop/>
<stop offset="0.333333" stop-color="#D4D4D4" stop-opacity="0.415"/>
<stop offset="0.666667" stop-color="white" stop-opacity="0.5"/>
<stop offset="1"/>
</linearGradient>
<linearGradient id="paint1_linear_368_307" x1="227.002" y1="4.00136" x2="227.44" y2="164.955" gradientUnits="userSpaceOnUse">
<stop/>
<stop offset="0.333333" stop-color="#D4D4D4" stop-opacity="0.415"/>
<stop offset="0.666667" stop-color="white" stop-opacity="0.5"/>
<stop offset="1"/>
</linearGradient>
</defs>
</svg>
