<svg width="722" height="257" viewBox="0 0 722 257" fill="none" xmlns="http://www.w3.org/2000/svg">
<path d="M226.61 154.688C226.61 154.856 226.573 155.414 226.506 156.364C226.437 157.313 226.073 158.512 225.414 159.963C224.821 161.357 223.803 162.89 222.361 164.562C220.919 166.233 218.791 167.846 215.978 169.403C215.254 170.684 214.532 171.687 213.812 172.411C213.09 173.136 212.665 173.552 212.534 173.664L211.746 174.584L210.279 174.412C207.996 174.126 205.972 173.897 204.212 173.724C202.514 173.551 200.949 173.463 199.513 173.458C198.011 173.455 196.607 173.534 195.302 173.697C193.997 173.862 192.657 174.109 191.285 174.44C189.978 174.771 188.573 175.215 187.07 175.768C185.632 176.267 184.03 176.877 182.265 177.597L180.796 177.762C179.099 177.757 177.435 177.696 175.803 177.579C174.237 177.407 172.834 177.318 171.594 177.315C169.832 177.31 168.233 177.389 166.796 177.552C165.425 177.715 164.053 177.992 162.681 178.378C161.308 178.765 159.838 179.264 158.269 179.874C156.7 180.483 154.869 181.233 152.777 182.119L151.698 182.62L150.916 182.449C148.438 181.715 146.256 180.592 144.369 179.08C142.743 177.79 141.249 175.971 139.887 173.622C138.591 171.271 137.951 168.198 137.966 164.4C137.975 162.054 138.342 160.073 139.066 158.455C139.856 156.838 140.71 155.528 141.628 154.525C142.611 153.523 143.495 152.799 144.28 152.355C145.065 151.854 145.523 151.576 145.654 151.521L146.439 151.021L147.417 151.191C149.439 151.532 151.201 151.788 152.701 151.96C154.202 152.132 155.605 152.22 156.91 152.224C158.085 152.227 159.227 152.175 160.338 152.066C161.513 151.902 162.754 151.682 164.061 151.407C165.367 151.076 166.805 150.689 168.373 150.247C170.007 149.749 171.935 149.168 174.156 148.504L174.941 148.171L175.723 148.341C178.789 148.909 181.529 149.28 183.943 149.454C183.164 148.391 182.222 147.355 181.116 146.346C180.076 145.282 178.971 144.19 177.8 143.069L177.119 142.23C176.216 139.379 175.215 136.779 174.114 134.43C173.014 132.025 171.718 129.787 170.225 127.717C168.797 125.646 167.173 123.686 165.353 121.838C163.532 119.99 161.484 118.169 159.206 116.375L158.425 115.87L158.428 115.2C157.341 109.5 155.338 104.3 152.419 99.6003C149.501 94.8445 145.602 90.5328 140.722 86.665L139.843 85.9922L139.848 84.9869C139.848 84.931 139.914 84.68 140.046 84.2335C140.179 83.7871 140.409 83.2014 140.739 82.4762C141.068 81.7512 141.561 80.9148 142.217 79.9673C142.874 79.0197 143.726 78.0448 144.774 77.0426C144.645 76.7629 144.581 76.5115 144.582 76.2881C144.582 76.0647 144.583 75.8133 144.584 75.5341C144.594 73.1885 144.961 71.2068 145.685 69.5893C146.475 67.9718 147.328 66.662 148.246 65.6593C149.164 64.6567 150.015 63.9332 150.8 63.4885C151.586 62.9882 152.044 62.7103 152.174 62.6547L153.057 62.3223L154.035 62.4926C157.687 63.2294 160.754 63.6012 163.234 63.6084C164.409 63.6119 165.519 63.5592 166.563 63.4506C167.609 63.286 168.719 63.0659 169.895 62.79C171.136 62.4585 172.476 62.0994 173.913 61.7127C175.351 61.3259 177.017 60.8839 178.912 60.3869C179.239 60.276 179.533 60.1932 179.794 60.1381C180.056 60.0271 180.35 59.8884 180.677 59.7218L181.462 59.3052L182.342 59.4752C184.755 59.9291 186.875 60.2703 188.702 60.4991C190.594 60.6721 192.324 60.7609 193.891 60.7655C196.827 60.774 199.669 60.4192 202.412 59.7011C205.156 58.9831 208.49 57.8757 212.412 56.3792L213.589 55.7961L214.761 56.3861C214.827 56.4421 215.25 56.6947 216.032 57.1437C216.877 57.593 217.821 58.3217 218.862 59.3301C219.902 60.3383 220.942 61.6539 221.979 63.2765C223.017 64.8992 223.76 66.884 224.207 69.231C224.336 69.8458 224.43 70.4883 224.494 71.1586C224.555 71.7731 224.586 72.3318 224.584 72.8344C224.577 74.7333 224.309 76.4359 223.781 77.9423C223.254 79.3929 222.661 80.6479 222.004 81.707C221.348 82.7105 220.724 83.5185 220.135 84.1311C219.609 84.6881 219.315 84.9945 219.249 85.05L218.267 85.7174L216.898 85.5459C214.68 85.2602 212.69 85.0589 210.928 84.9421C209.232 84.7696 207.665 84.6813 206.23 84.6772C204.728 84.6727 203.325 84.7525 202.018 84.9162C200.712 85.0241 199.374 85.2436 198.001 85.5747C196.694 85.906 195.29 86.3488 193.787 86.9029C192.283 87.4012 190.616 88.0106 188.786 88.7313L188.197 89.0648L187.414 88.8949C185.783 88.8902 184.314 88.858 183.009 88.7984C181.704 88.7388 180.497 88.7073 179.387 88.7042C180.685 90.6068 182.114 92.4261 183.673 94.162C185.298 95.8422 187.119 97.467 189.137 99.0367L189.721 99.8763C190.688 102.895 191.721 105.663 192.82 108.179C193.921 110.639 195.185 112.933 196.611 115.06C198.04 117.13 199.663 119.089 201.484 120.938C203.369 122.786 205.516 124.58 207.924 126.318L208.702 127.577C209.343 130.483 210.085 133.11 210.922 135.458C211.827 137.751 212.928 139.904 214.226 141.919C215.589 143.933 217.18 145.865 219.001 147.713C220.886 149.561 223.163 151.439 225.832 153.346L226.417 153.85L226.61 154.688ZM297.799 137.889L297.404 138.642C294.967 144.331 293.738 149.745 293.717 154.883C293.708 157.397 293.96 159.911 294.472 162.425C295.048 164.94 295.887 167.623 296.985 170.475L297.47 171.398L296.979 172.066C296.913 172.178 296.551 172.679 295.895 173.572C295.24 174.407 294.158 175.325 292.655 176.327C291.149 177.328 289.122 178.243 286.572 179.073C284.023 179.847 280.823 180.229 276.973 180.218C273.122 180.208 269.926 179.78 267.383 178.935C264.907 178.033 262.952 177.05 261.52 175.986C260.089 174.864 259.082 173.856 258.497 172.961C257.914 172.065 257.59 171.561 257.525 171.449L257.136 170.61L257.531 169.857C259.044 166.79 260.166 163.806 260.896 160.904C261.624 158.001 261.996 155.042 262.007 152.027C262.017 149.96 261.861 147.838 261.543 145.658C261.291 143.424 260.811 141.049 260.103 138.533L260.107 137.444C261.033 134.599 261.695 131.92 262.098 129.408C262.498 126.896 262.704 124.439 262.714 122.037C262.735 116.955 261.743 111.814 259.741 106.614L259.352 105.859L259.745 105.19C261.195 102.178 262.217 99.1654 262.818 96.1512C263.482 93.0814 263.886 90.0388 264.029 87.0233L263.049 87.0203C256.391 87.0011 249.762 88.015 243.162 90.0623L242.378 90.2276L241.4 89.8897C241.269 89.8892 240.684 89.6361 239.64 89.1305C238.599 88.6248 237.426 87.7557 236.127 86.5233C234.891 85.291 233.787 83.6403 232.817 81.5709C231.781 79.4456 231.269 76.7634 231.283 73.524C231.294 70.5082 231.795 68.0522 232.78 66.1562C233.768 64.2043 234.85 62.6717 236.03 61.5581C237.274 60.3889 238.387 59.5823 239.369 59.1383C240.414 58.6386 241.004 58.3612 241.135 58.3057L241.918 57.9729L242.896 58.3108C245.765 59.2128 248.634 59.8633 251.504 60.2627C254.375 60.606 257.344 60.7823 260.411 60.7912C263.153 60.7991 266.091 60.724 269.223 60.5655C272.423 60.3513 275.429 59.8016 278.238 58.9162L279.023 58.5833L279.805 58.9207C283.13 59.8798 286.26 60.5871 289.195 61.0424C292.196 61.4979 295.165 61.7299 298.101 61.7384C303.388 61.7538 309.201 60.905 315.539 59.192L316.715 58.8604L317.692 59.5334C317.757 59.5895 318.181 59.8979 318.96 60.4587C319.742 61.0193 320.555 61.8874 321.398 63.0628C322.307 64.1824 323.117 65.6368 323.828 67.426C324.605 69.1596 325.021 71.2273 325.077 73.6291C325.067 76.1423 324.7 78.3472 323.974 80.2441C323.248 82.0851 322.426 83.6464 321.508 84.9282C320.655 86.1546 319.834 87.1015 319.049 87.7696C318.263 88.3816 317.836 88.7712 317.77 88.9386L316.789 89.606L315.42 89.2669C312.095 88.3636 309.029 87.7404 306.224 87.3971C303.485 86.9982 300.743 86.7948 298.003 86.7869L295.163 86.7786C295.028 87.56 294.994 88.3139 295.055 89.0402C295.119 89.7106 295.148 90.3809 295.146 91.0511C295.136 93.3967 295.29 95.687 295.608 97.9219C295.991 100.157 296.538 102.393 297.246 104.629L297.243 105.634C296.251 108.759 295.489 111.633 294.955 114.256C294.489 116.88 294.251 119.448 294.241 121.961C294.229 124.53 294.482 127.044 294.994 129.503C295.506 131.962 296.311 134.534 297.41 137.218L297.799 137.889ZM408.741 120.702C408.731 123.215 408.33 125.42 407.539 127.317C406.75 129.158 405.862 130.719 404.878 132.001C403.893 133.282 402.976 134.257 402.125 134.925C401.34 135.593 400.912 135.955 400.847 136.01L399.867 136.678L398.496 136.338C394.845 135.267 391.619 134.475 388.813 133.965C386.074 133.454 383.334 133.195 380.592 133.187C378.569 133.181 376.578 133.343 374.618 133.672L375.201 134.679L375.59 135.434L375.195 136.103C373.615 139.896 372.523 143.663 371.92 147.403C372.966 147.183 374.14 146.991 375.448 146.827C376.753 146.663 377.993 146.527 379.169 146.419C380.344 146.311 381.324 146.23 382.107 146.176C382.891 146.123 383.315 146.096 383.38 146.096L384.164 145.847L384.945 146.268C388.661 147.564 391.823 148.55 394.431 149.228C397.04 149.906 399.682 150.249 402.358 150.256C404.185 150.262 406.176 150.1 408.332 149.771C410.487 149.442 412.936 148.975 415.679 148.368L416.856 148.037L417.832 148.71C417.897 148.821 418.256 149.185 418.906 149.802C419.621 150.362 420.368 151.258 421.147 152.489C421.925 153.664 422.638 155.174 423.283 157.019C423.928 158.808 424.245 160.959 424.236 163.473C424.161 165.986 423.695 168.162 422.84 170.002C421.983 171.844 421.065 173.404 420.079 174.686C419.095 175.912 418.179 176.859 417.328 177.526C416.477 178.195 416.018 178.556 415.953 178.612L414.676 179.111L413.504 178.771C409.657 177.533 406.463 176.658 403.92 176.147C401.376 175.582 398.896 175.295 396.482 175.287C394.784 175.282 393.022 175.417 391.193 175.691C389.364 175.91 387.242 176.266 384.824 176.762L383.455 176.758C381.628 176.473 379.801 176.16 377.976 175.821C376.214 175.424 374.422 175.057 372.594 174.715C371.94 175.328 371.089 175.996 370.041 176.719C369.059 177.386 367.818 177.997 366.314 178.551C364.876 179.106 363.178 179.547 361.218 179.877C359.323 180.262 357.169 180.452 354.752 180.445C350.902 180.434 347.706 179.977 345.164 179.076C342.686 178.175 340.699 177.192 339.203 176.127C337.771 175.005 336.764 173.997 336.181 173.103C335.597 172.15 335.305 171.62 335.305 171.508L334.916 170.836L335.312 169.916C336.826 166.849 337.948 163.697 338.678 160.459C339.409 157.222 339.781 153.928 339.794 150.577C339.804 148.231 339.65 145.858 339.332 143.455C339.082 141.053 338.601 138.566 337.894 135.995L337.898 134.906C338.693 132.171 339.323 129.493 339.791 126.869C340.324 124.19 340.595 121.51 340.605 118.829C340.616 115.869 340.335 112.964 339.76 110.114C339.182 107.264 338.41 104.441 337.444 101.646L337.251 100.808L337.644 100.139C339.092 97.1267 340.149 94.1139 340.813 91.1C341.543 88.0304 341.914 84.9876 341.926 81.9718C341.937 79.5144 341.718 77.0843 341.271 74.6814C340.888 72.2229 340.245 69.7358 339.342 67.2198L338.955 66.1297L339.74 65.2943C339.806 65.2386 340.199 64.9047 340.921 64.2923C341.641 63.6243 342.721 62.9292 344.159 62.2073C345.663 61.4299 347.527 60.765 349.748 60.2129C351.968 59.6052 354.614 59.3057 357.681 59.3146C361.206 59.3248 364.208 59.7523 366.684 60.5973C369.161 61.4422 371.148 62.3416 372.646 63.2954C374.539 63.1333 376.53 62.8879 378.621 62.5589C380.71 62.2297 382.801 61.7612 384.891 61.1529L385.677 60.82L386.753 60.9907C389.882 61.8376 392.589 62.4877 394.872 62.9411C397.219 63.3389 399.437 63.5409 401.526 63.5468C403.812 63.5536 406.195 63.3091 408.677 62.8137C411.159 62.3183 414.066 61.5727 417.399 60.5772L418.575 60.1617L419.651 60.7511C419.715 60.8073 420.139 61.1157 420.92 61.6765C421.7 62.2371 422.545 63.1053 423.454 64.2808C424.365 65.4005 425.208 66.855 425.984 68.6445C426.825 70.3783 427.339 72.502 427.524 75.0158L427.518 76.5237C427.509 78.7578 427.176 80.7395 426.515 82.4688C425.857 84.1983 425.1 85.6762 424.247 86.9024C423.458 88.0729 422.705 88.9643 421.983 89.5765C421.328 90.189 420.968 90.5231 420.903 90.5788L419.921 91.246L418.454 90.9066C415.323 90.2832 412.649 89.8287 410.431 89.543C408.213 89.2014 406.159 89.0279 404.264 89.0225C402.046 89.016 399.826 89.233 397.604 89.6732C395.45 90.058 392.835 90.6648 389.764 91.4936L388.394 91.657C385.654 91.2023 383.012 90.8595 380.467 90.6287C377.987 90.3982 375.475 90.2791 372.929 90.2717C373.12 91.8361 373.374 93.4007 373.694 94.9654C374.081 96.4745 374.564 98.0117 375.145 99.5772L375.14 100.75C374.745 101.754 374.414 102.759 374.15 103.763C373.95 104.712 373.75 105.717 373.549 106.777C375.44 107.23 377.202 107.542 378.832 107.714C380.529 107.887 382.292 107.976 384.119 107.981C386.534 107.988 388.983 107.827 391.465 107.499C393.946 107.116 396.657 106.537 399.597 105.764L400.774 105.432L401.75 106.105C401.815 106.161 402.204 106.497 402.92 107.114C403.702 107.675 404.514 108.571 405.358 109.802C406.267 110.977 407.044 112.487 407.689 114.332C408.4 116.122 408.75 118.245 408.741 120.702ZM580.012 74.0347L579.419 75.122C576.793 79.2474 574.818 83.3465 573.497 87.4198C572.176 91.4371 571.506 95.5402 571.489 99.7288C571.481 101.851 571.668 103.918 572.053 105.93L571.656 106.934C567.055 115.466 564.737 123.808 564.704 131.963C564.698 133.415 564.758 134.867 564.883 136.319C565.008 137.716 565.23 139.141 565.551 140.594L565.056 141.933C559.999 149.849 557.453 158.079 557.419 166.623C557.413 168.188 557.473 169.752 557.596 171.317C557.786 172.824 558.041 174.361 558.362 175.926L558.555 176.765L557.964 177.432C557.898 177.544 557.571 177.907 556.982 178.519C556.391 179.132 555.441 179.771 554.134 180.437C552.89 181.16 551.256 181.798 549.23 182.35C547.205 182.959 544.756 183.259 541.885 183.251C539.403 183.243 537.185 183.07 535.229 182.729C533.271 182.388 531.511 181.936 529.948 181.373C528.448 180.809 527.112 180.192 525.939 179.518C524.834 178.788 523.891 178.06 523.109 177.332C521.224 175.595 519.861 173.608 519.022 171.371L518.829 170.617L519.517 169.781C518.019 169.106 516.879 168.406 516.099 167.678C515.385 166.893 515.027 166.445 515.027 166.333L514.443 165.661L514.445 164.824C514.647 163.54 514.749 162.311 514.753 161.138C514.825 159.91 514.861 158.737 514.867 157.62C514.876 154.939 514.561 152.369 513.918 149.91C513.34 147.451 512.339 144.74 510.914 141.775C507.167 148.634 505.279 155.889 505.248 163.54C505.242 164.936 505.302 166.333 505.427 167.73C505.618 169.071 505.808 170.439 505.999 171.836L506.191 172.674L505.6 173.343C505.535 173.455 505.207 173.816 504.616 174.429C504.093 174.986 503.242 175.627 502.063 176.348C500.887 177.015 499.383 177.653 497.552 178.262C495.789 178.816 493.665 179.117 491.185 179.165C489.287 180.277 486.934 181.248 484.125 182.076C481.38 182.963 478.245 183.401 474.72 183.391C472.305 183.383 470.216 183.098 468.457 182.534C466.762 182.027 465.328 181.463 464.156 180.846C463.048 180.228 462.203 179.64 461.618 179.08C461.033 178.519 460.707 178.211 460.642 178.155L460.056 177.483L460.257 176.646C460.391 175.529 460.494 174.44 460.563 173.379C460.632 172.318 460.669 171.23 460.675 170.113C460.692 165.645 460.056 161.203 458.768 156.787C457.48 152.315 455.443 147.842 452.654 143.365L452.168 142.275C452.193 136.243 451.367 130.572 449.69 125.261C448.015 119.951 445.424 114.861 441.918 109.992L441.533 108.65C441.668 107.534 441.77 106.445 441.839 105.384C441.908 104.323 441.945 103.234 441.951 102.117C441.987 92.9577 439.149 84.3765 433.437 76.3734L432.852 75.5339L433.445 74.4466C433.445 74.5024 433.805 74.0008 434.527 72.9418C435.249 71.8827 436.462 70.7133 438.164 69.4338C439.931 68.0985 442.253 66.8766 445.129 65.7679C448.006 64.6593 451.598 64.1112 455.905 64.1238C457.864 64.1295 459.625 64.3022 461.19 64.6417C462.756 64.9256 464.092 65.2646 465.201 65.6587C466.308 66.0529 467.155 66.4183 467.742 66.7552C468.393 67.0921 468.784 67.2888 468.915 67.345L469.989 68.1022L469.983 69.275C469.851 70.0565 469.781 70.8382 469.779 71.6201C469.776 72.3461 469.774 73.1 469.77 73.882C469.751 78.7408 470.384 83.3223 471.674 87.6266C472.962 91.8748 475.034 95.958 477.891 99.8758L478.081 101.049C478.064 105.405 478.374 109.483 479.011 113.283C479.651 117.083 480.777 120.716 482.396 124.184C483.32 121.673 483.983 119.245 484.383 116.901C484.784 114.556 484.99 112.128 484.999 109.614C485.009 107.157 484.824 104.531 484.443 101.738L484.25 101.067L484.645 100.398C486.745 97.2766 488.355 94.3769 489.476 91.6995C490.662 88.9663 491.424 86.0922 491.763 83.0774V82.9098L491.179 81.819L491.574 80.9825C491.574 81.0383 491.903 80.5645 492.56 79.5611C493.216 78.5018 494.299 77.3601 495.804 76.1357C497.375 74.8558 499.435 73.6889 501.986 72.6351C504.536 71.5814 507.703 71.0601 511.49 71.071C513.317 71.0764 514.948 71.2486 516.382 71.588C517.882 71.9273 519.153 72.3221 520.196 72.7718C521.303 73.166 522.15 73.5595 522.738 73.952C523.388 74.2891 523.779 74.4856 523.91 74.542L524.886 75.2987L524.881 76.4716C524.748 77.253 524.678 77.9789 524.676 78.649C524.675 79.3192 524.671 79.9616 524.669 80.5759C524.659 82.754 524.782 84.7091 525.036 86.4413C525.356 88.1177 525.839 89.7666 526.486 91.3882C527.133 92.9539 527.942 94.548 528.914 96.1704C529.886 97.7929 531.055 99.5835 532.418 101.542L532.805 102.716C532.798 104.503 532.824 106.123 532.884 107.575C532.944 109.028 533.036 110.368 533.161 111.597C533.287 112.826 533.446 113.972 533.637 115.033C533.895 116.039 534.184 117.046 534.507 118.052C534.908 115.651 535.112 113.306 535.121 111.017C535.127 109.62 535.035 108.252 534.844 106.911C534.719 105.514 534.561 104.117 534.37 102.721L534.374 101.883L534.769 101.381C540.414 93.2995 543.254 84.8465 543.289 76.0224C543.298 73.7885 543.112 71.4422 542.73 68.9837L542.538 67.9778L543.52 67.0592C543.585 67.0035 543.912 66.8089 544.502 66.4756C545.091 66.0864 545.942 65.6699 547.053 65.2264C548.229 64.7829 549.635 64.3961 551.267 64.0658C552.965 63.6798 554.923 63.49 557.143 63.4964C561.125 63.508 564.517 63.9926 567.321 64.9501C570.122 65.9078 572.404 66.9755 574.161 68.1536C575.919 69.3315 577.219 70.4522 578.064 71.5158C578.907 72.5235 579.364 73.0833 579.427 73.1952L580.012 74.0347Z" fill="white"/>
<path d="M152.696 175.484C155.991 175.484 158.663 173.198 158.663 170.378C158.663 167.558 155.991 165.271 152.696 165.271C149.4 165.271 146.728 167.558 146.728 170.378C146.728 173.198 149.4 175.484 152.696 175.484Z" fill="#6E2ADD"/>
<path d="M558.493 85.6136C561.789 85.6136 564.461 83.3275 564.461 80.5074C564.461 77.6873 561.789 75.4011 558.493 75.4011C555.197 75.4011 552.525 77.6873 552.525 80.5074C552.525 83.3275 555.197 85.6136 558.493 85.6136Z" fill="#6E2ADD"/>
</svg>
